<svg xmlns="http://www.w3.org/2000/svg" viewBox="0 0 230.51 55.73"><defs><style>.a{fill:#6660a9;}.b{fill:#18bdce;}.c{fill:#43b54c;}.d{fill:#422d72;}.e{fill:#c63893;}.f{fill:#f9ba1b;}.g{fill:#747777;}.h{fill:#231f20;}</style></defs><rect class="a" x="21.09" y="33.29" width="15.76" height="15.76" transform="translate(-27.3 24.81) rotate(-45)"/><rect class="b" x="32.23" y="44.43" width="15.76" height="15.76" transform="translate(-31.92 35.95) rotate(-45)"/><rect class="c" x="43.38" y="33.29" width="15.76" height="15.76" transform="translate(-20.77 40.57) rotate(-45)"/><rect class="d" x="32.23" y="22.14" width="15.76" height="15.76" transform="translate(-16.16 29.42) rotate(-45)"/><rect class="e" x="9.94" y="22.14" width="15.76" height="15.76" transform="translate(-22.69 13.66) rotate(-45)"/><rect class="e" x="21.09" y="11" width="15.76" height="15.76" transform="translate(-11.54 18.28) rotate(-45)"/><rect class="f" x="54.52" y="22.14" width="15.76" height="15.76" transform="translate(-9.63 45.19) rotate(-45)"/><rect class="f" x="43.38" y="11" width="15.76" height="15.76" transform="translate(-5.01 34.04) rotate(-45)"/><path class="g" d="M85.58,33.18V17.43h5.66a8.05,8.05,0,0,1,4.63,1.11,3.73,3.73,0,0,1,1.58,3.24,3.81,3.81,0,0,1-.56,2.09,3.31,3.31,0,0,1-1.66,1.27,3.3,3.3,0,0,1,1.9,1.22,3.51,3.51,0,0,1,.66,2.16A4.18,4.18,0,0,1,96.32,32,7,7,0,0,1,92,33.18ZM89.38,24h2a2.84,2.84,0,0,0,1.78-.46,1.62,1.62,0,0,0,.53-1.31,1.7,1.7,0,0,0-.58-1.44,3.09,3.09,0,0,0-1.85-.44H89.38Zm0,2.48v3.78h2.49a2.38,2.38,0,0,0,1.58-.47A1.64,1.64,0,0,0,94,28.46a1.75,1.75,0,0,0-2-2Z" transform="translate(-6.68 -7.73)"/><path class="g" d="M106.68,31.92a3.77,3.77,0,0,1-3.13,1.48,3.67,3.67,0,0,1-2.91-1.12,4.72,4.72,0,0,1-1-3.22V21.48h3.64v7.6a1.31,1.31,0,0,0,1.46,1.5,1.9,1.9,0,0,0,1.79-.89V21.48h3.67v11.7h-3.42Z" transform="translate(-6.68 -7.73)"/><path class="g" d="M112.18,18.46a1.61,1.61,0,0,1,.56-1.28,2.38,2.38,0,0,1,2.92,0,1.61,1.61,0,0,1,.56,1.28,1.59,1.59,0,0,1-.56,1.27,2.38,2.38,0,0,1-2.92,0A1.59,1.59,0,0,1,112.18,18.46Zm3.87,14.72h-3.66V21.48h3.66Z" transform="translate(-6.68 -7.73)"/><path class="g" d="M122.14,33.18h-3.66V16.56h3.66Z" transform="translate(-6.68 -7.73)"/><path class="g" d="M123.93,27.24a7.16,7.16,0,0,1,1.2-4.38,3.93,3.93,0,0,1,3.35-1.6,3.35,3.35,0,0,1,2.64,1.23V16.56h3.66V33.18H131.5l-.18-1.25a3.48,3.48,0,0,1-2.86,1.47,4,4,0,0,1-3.31-1.6A7.37,7.37,0,0,1,123.93,27.24Zm3.64.23c0,2.08.61,3.11,1.82,3.11a1.79,1.79,0,0,0,1.73-1V25.11a1.75,1.75,0,0,0-1.71-1q-1.68,0-1.83,2.73Z" transform="translate(-6.68 -7.73)"/><path class="g" d="M136.82,18.46a1.64,1.64,0,0,1,.56-1.28,2.16,2.16,0,0,1,1.46-.5,2.12,2.12,0,0,1,1.46.5,1.62,1.62,0,0,1,.57,1.28,1.6,1.6,0,0,1-.57,1.27,2.07,2.07,0,0,1-1.46.5,2.11,2.11,0,0,1-1.46-.5A1.62,1.62,0,0,1,136.82,18.46Zm3.87,14.72H137V21.48h3.65Z" transform="translate(-6.68 -7.73)"/><path class="g" d="M146.29,21.48l.12,1.37a4,4,0,0,1,3.34-1.59,3.33,3.33,0,0,1,2.73,1.09,5.22,5.22,0,0,1,.94,3.29v7.54h-3.66V25.79a2,2,0,0,0-.36-1.3,1.64,1.64,0,0,0-1.29-.42,1.74,1.74,0,0,0-1.6.85v8.26h-3.64V21.48Z" transform="translate(-6.68 -7.73)"/><path class="g" d="M155,27.24a7.84,7.84,0,0,1,.58-3.13A4.69,4.69,0,0,1,157.27,22a4.44,4.44,0,0,1,2.54-.74,3.53,3.53,0,0,1,2.86,1.23l.13-1h3.31V32.74a4.94,4.94,0,0,1-.72,2.69,4.67,4.67,0,0,1-2.08,1.75,7.65,7.65,0,0,1-3.16.61,6.55,6.55,0,0,1-2.5-.49A4.42,4.42,0,0,1,155.81,36l1.52-2.14A3.36,3.36,0,0,0,160,35.1a2.17,2.17,0,0,0,2.42-2.49v-.37a3.43,3.43,0,0,1-2.65,1.16,4.23,4.23,0,0,1-3.46-1.64A6.8,6.8,0,0,1,155,27.37Zm3.65.23a4.09,4.09,0,0,0,.55,2.28,1.69,1.69,0,0,0,1.51.83,1.94,1.94,0,0,0,1.72-.78V24.87a1.89,1.89,0,0,0-1.7-.8,1.7,1.7,0,0,0-1.52.87A4.74,4.74,0,0,0,158.66,27.47Z" transform="translate(-6.68 -7.73)"/><path class="g" d="M171.23,33.19V17.44h5.66a8.05,8.05,0,0,1,4.63,1.11,3.74,3.74,0,0,1,1.58,3.24,3.81,3.81,0,0,1-.56,2.09,3.31,3.31,0,0,1-1.66,1.27,3.3,3.3,0,0,1,1.9,1.22,3.51,3.51,0,0,1,.66,2.16A4.18,4.18,0,0,1,182,32a7,7,0,0,1-4.34,1.18ZM175,24h2a2.84,2.84,0,0,0,1.78-.46,1.62,1.62,0,0,0,.53-1.31,1.7,1.7,0,0,0-.58-1.44,3.09,3.09,0,0,0-1.85-.44H175Zm0,2.49v3.77h2.49a2.38,2.38,0,0,0,1.58-.47,1.62,1.62,0,0,0,.55-1.32,1.74,1.74,0,0,0-2-2Z" transform="translate(-6.68 -7.73)"/><path class="g" d="M189.2,33.19h-3.65V16.57h3.65Z" transform="translate(-6.68 -7.73)"/><path class="g" d="M191,27.23a7,7,0,0,1,.68-3.12,4.92,4.92,0,0,1,2-2.1,5.9,5.9,0,0,1,3-.74,5.36,5.36,0,0,1,4.14,1.63,6.23,6.23,0,0,1,1.51,4.43v.13a6,6,0,0,1-1.52,4.34,5.38,5.38,0,0,1-4.11,1.61,5.46,5.46,0,0,1-4-1.5A5.85,5.85,0,0,1,191,27.85Zm3.65.23a4.46,4.46,0,0,0,.5,2.38,1.71,1.71,0,0,0,1.51.76c1.3,0,2-1,2-3v-.37q0-3.15-2-3.15c-1.22,0-1.88.91-2,2.72Z" transform="translate(-6.68 -7.73)"/><path class="g" d="M208.84,30.6a1.61,1.61,0,0,0,1.19-.42,1.53,1.53,0,0,0,.41-1.16h3.42a4.06,4.06,0,0,1-1.38,3.16,5.13,5.13,0,0,1-3.55,1.23,5.23,5.23,0,0,1-4-1.6,6.33,6.33,0,0,1-1.47-4.44v-.15a7.06,7.06,0,0,1,.66-3.13A4.72,4.72,0,0,1,206,22a5.64,5.64,0,0,1,2.93-.73,5,5,0,0,1,3.62,1.27A4.49,4.49,0,0,1,213.86,26h-3.42a2,2,0,0,0-.44-1.4,1.52,1.52,0,0,0-1.19-.49c-.95,0-1.5.61-1.66,1.81a13,13,0,0,0-.07,1.58,5,5,0,0,0,.42,2.44A1.46,1.46,0,0,0,208.84,30.6Z" transform="translate(-6.68 -7.73)"/><path class="g" d="M220.1,28.83l-1,1v3.33h-3.64V16.56h3.64v8.83l.37-.49,2.75-3.41h4.37l-4.1,4.81,4.37,6.89h-4.17Z" transform="translate(-6.68 -7.73)"/><path class="g" d="M233.65,29.9a.82.82,0,0,0-.49-.74,7.5,7.5,0,0,0-1.85-.59,8.28,8.28,0,0,1-2.25-.79,3.79,3.79,0,0,1-1.35-1.2,2.85,2.85,0,0,1-.47-1.61,3.27,3.27,0,0,1,1.33-2.66,5.53,5.53,0,0,1,3.49-1,6.08,6.08,0,0,1,3.72,1.05,3.28,3.28,0,0,1,1.41,2.76h-3.66c0-.94-.5-1.41-1.48-1.41a1.49,1.49,0,0,0-1,.32,1,1,0,0,0-.39.8.92.92,0,0,0,.48.79,4.56,4.56,0,0,0,1.52.49,12.73,12.73,0,0,1,1.83.47c1.76.6,2.64,1.69,2.64,3.26a3.06,3.06,0,0,1-1.42,2.6,6.23,6.23,0,0,1-3.68,1,6.43,6.43,0,0,1-2.69-.54,4.49,4.49,0,0,1-1.83-1.47,3.35,3.35,0,0,1-.66-2h3.4a1.43,1.43,0,0,0,.54,1.18,2.23,2.23,0,0,0,1.33.38,1.68,1.68,0,0,0,1.12-.31A1,1,0,0,0,233.65,29.9Z" transform="translate(-6.68 -7.73)"/><path class="g" d="M94.59,47.45H88v7H85.9V38.66h9.76v1.7H88v5.39h6.61Z" transform="translate(-6.68 -7.73)"/><path class="g" d="M97.07,48.45a7,7,0,0,1,.68-3.1,4.95,4.95,0,0,1,4.64-2.86,4.93,4.93,0,0,1,3.86,1.65,6.33,6.33,0,0,1,1.48,4.4v.15a7,7,0,0,1-.65,3.06,5,5,0,0,1-1.88,2.12,5.2,5.2,0,0,1-2.79.75A4.94,4.94,0,0,1,98.55,53a6.36,6.36,0,0,1-1.48-4.38Zm2,.24a5,5,0,0,0,.9,3.12,3.06,3.06,0,0,0,4.84,0,5.49,5.49,0,0,0,.9-3.35,5,5,0,0,0-.91-3.12,2.92,2.92,0,0,0-2.43-1.2A2.85,2.85,0,0,0,100,45.31,5.42,5.42,0,0,0,99.09,48.69Z" transform="translate(-6.68 -7.73)"/><path class="g" d="M115.9,44.5a6,6,0,0,0-1-.08,2.64,2.64,0,0,0-2.67,1.68v8.31h-2V42.7h2l0,1.35A3.13,3.13,0,0,1,115,42.49a2.07,2.07,0,0,1,.89.15Z" transform="translate(-6.68 -7.73)"/><path class="g" d="M127.54,47.08l-1.93,2v5.32h-2.07V38.66h2.07v7.79l7-7.79h2.51l-6.2,7,6.69,8.8h-2.49Z" transform="translate(-6.68 -7.73)"/><path class="g" d="M137.12,39.6a1.17,1.17,0,0,1,.3-.82,1.1,1.1,0,0,1,.88-.34,1.12,1.12,0,0,1,.89.34,1.26,1.26,0,0,1,0,1.63,1.18,1.18,0,0,1-.89.32,1.07,1.07,0,0,1-1.18-1.13Zm2.17,14.81h-2V42.7h2Z" transform="translate(-6.68 -7.73)"/><path class="g" d="M142,48.46a6.89,6.89,0,0,1,1.28-4.34,4.36,4.36,0,0,1,6.6-.23v-6.1h2V54.41H150L150,53.15a4.1,4.1,0,0,1-3.35,1.47A4,4,0,0,1,143.29,53,6.9,6.9,0,0,1,142,48.61Zm2,.23a5.17,5.17,0,0,0,.82,3.11,2.66,2.66,0,0,0,2.27,1.13,2.91,2.91,0,0,0,2.78-1.71V45.84a3,3,0,0,0-2.76-1.66,2.66,2.66,0,0,0-2.29,1.14A5.72,5.72,0,0,0,144,48.69Z" transform="translate(-6.68 -7.73)"/><path class="g" d="M161.8,51.3a1.47,1.47,0,0,0-.61-1.26,6,6,0,0,0-2.13-.77,10.32,10.32,0,0,1-2.41-.78,3.32,3.32,0,0,1-1.32-1.08,2.56,2.56,0,0,1-.43-1.49,3.06,3.06,0,0,1,1.22-2.44,4.75,4.75,0,0,1,3.11-1,4.94,4.94,0,0,1,3.23,1,3.29,3.29,0,0,1,1.24,2.63h-2a1.79,1.79,0,0,0-.69-1.41,2.63,2.63,0,0,0-1.76-.6,2.72,2.72,0,0,0-1.71.48,1.49,1.49,0,0,0-.62,1.24,1.21,1.21,0,0,0,.57,1.09,7.22,7.22,0,0,0,2.08.71,11,11,0,0,1,2.43.8,3.48,3.48,0,0,1,1.37,1.12,2.71,2.71,0,0,1,.45,1.59,3,3,0,0,1-1.25,2.52,5.28,5.28,0,0,1-3.26.94,6,6,0,0,1-2.49-.49,4.09,4.09,0,0,1-1.69-1.39,3.34,3.34,0,0,1-.61-1.93h2a2.08,2.08,0,0,0,.81,1.59,3.13,3.13,0,0,0,2,.59,3.22,3.22,0,0,0,1.83-.46A1.42,1.42,0,0,0,161.8,51.3Z" transform="translate(-6.68 -7.73)"/><path class="h" d="M174.58,40.59h-3.12v2.87h-.23V37.64H175v.21h-3.55v2.52h3.12Z" transform="translate(-6.68 -7.73)"/><path class="h" d="M179,43.46v-.7a1.39,1.39,0,0,1-.58.57,2,2,0,0,1-1,.21,1.37,1.37,0,0,1-1.1-.42,1.73,1.73,0,0,1-.38-1.2V39.13h.22v2.79a1.61,1.61,0,0,0,.33,1,1.2,1.2,0,0,0,.93.35,1.79,1.79,0,0,0,1.05-.29,1.31,1.31,0,0,0,.51-.86v-3h.23v4.33Z" transform="translate(-6.68 -7.73)"/><path class="h" d="M180.84,40.14a1.77,1.77,0,0,1,.65-.8,1.69,1.69,0,0,1,.95-.29,1.37,1.37,0,0,1,1.08.39,1.73,1.73,0,0,1,.36,1.19v2.83h-.23V40.63a1.54,1.54,0,0,0-.29-1,1.2,1.2,0,0,0-.93-.33,1.44,1.44,0,0,0-1,.39,2,2,0,0,0-.58,1v2.77h-.23V39.13h.23Z" transform="translate(-6.68 -7.73)"/><path class="h" d="M185.09,41.25a2.6,2.6,0,0,1,.45-1.62,1.5,1.5,0,0,1,1.25-.58,1.77,1.77,0,0,1,.9.22,1.71,1.71,0,0,1,.63.65V37.31h.23v6.15h-.23v-.7a1.45,1.45,0,0,1-.63.57,1.91,1.91,0,0,1-.91.21,1.49,1.49,0,0,1-1.24-.6,2.65,2.65,0,0,1-.45-1.63Zm.23.08a2.5,2.5,0,0,0,.38,1.46,1.25,1.25,0,0,0,1.08.53,1.85,1.85,0,0,0,1-.24,1.39,1.39,0,0,0,.58-.7v-2a1.49,1.49,0,0,0-1.53-1.09,1.24,1.24,0,0,0-1.08.52A2.55,2.55,0,0,0,185.32,41.33Z" transform="translate(-6.68 -7.73)"/><path class="h" d="M189.92,37.78a.23.23,0,0,1,.06-.16.26.26,0,0,1,.17-.07.24.24,0,0,1,.16.07.2.2,0,0,1,.07.16.18.18,0,0,1-.07.15.2.2,0,0,1-.16.07.22.22,0,0,1-.17-.07A.2.2,0,0,1,189.92,37.78Zm.34,5.68H190V39.13h.23Z" transform="translate(-6.68 -7.73)"/><path class="h" d="M192,40.14a1.83,1.83,0,0,1,.65-.8,1.71,1.71,0,0,1,.95-.29,1.37,1.37,0,0,1,1.08.39,1.73,1.73,0,0,1,.36,1.19v2.83h-.22V40.63a1.54,1.54,0,0,0-.3-1,1.18,1.18,0,0,0-.93-.33,1.44,1.44,0,0,0-1,.39,2,2,0,0,0-.58,1v2.77h-.23V39.13H192Z" transform="translate(-6.68 -7.73)"/><path class="h" d="M196.22,41.25a2.6,2.6,0,0,1,.45-1.62,1.5,1.5,0,0,1,1.25-.58,1.77,1.77,0,0,1,.9.22,1.71,1.71,0,0,1,.63.65v-.79h.23v4.25a1.85,1.85,0,0,1-.46,1.34,1.63,1.63,0,0,1-1.25.48,1.78,1.78,0,0,1-.83-.19,1.86,1.86,0,0,1-.65-.54l.16-.14a2,2,0,0,0,.58.48,1.67,1.67,0,0,0,1.82-.23,1.63,1.63,0,0,0,.4-1.15v-.66a1.51,1.51,0,0,1-.63.57,2.06,2.06,0,0,1-.91.2,1.49,1.49,0,0,1-1.24-.6,2.65,2.65,0,0,1-.45-1.63Zm.23.08a2.48,2.48,0,0,0,.38,1.46,1.27,1.27,0,0,0,1.08.53,1.84,1.84,0,0,0,1-.25,1.36,1.36,0,0,0,.57-.72v-2a1.47,1.47,0,0,0-1.53-1.12,1.27,1.27,0,0,0-1.09.52A2.63,2.63,0,0,0,196.45,41.33Z" transform="translate(-6.68 -7.73)"/><path class="h" d="M207.67,43.46h-.22L203.52,38v5.46h-.23V37.64h.23l3.93,5.44V37.64h.22Z" transform="translate(-6.68 -7.73)"/><path class="h" d="M210.85,43.54a2,2,0,0,1-1.72-1.06,2.34,2.34,0,0,1-.26-1.09v-.18a2.5,2.5,0,0,1,.25-1.1,2,2,0,0,1,.69-.78,1.73,1.73,0,0,1,1-.28,1.64,1.64,0,0,1,1.24.51,1.93,1.93,0,0,1,.48,1.36v.23H209.1v.23a2.14,2.14,0,0,0,.23,1,1.73,1.73,0,0,0,.64.7,1.64,1.64,0,0,0,.88.26,1.84,1.84,0,0,0,.78-.15,1.57,1.57,0,0,0,.57-.44l.15.11A1.73,1.73,0,0,1,210.85,43.54Zm-.08-4.27a1.49,1.49,0,0,0-1.12.47,1.91,1.91,0,0,0-.54,1.19h3.15v0a1.8,1.8,0,0,0-.19-.82,1.44,1.44,0,0,0-.54-.58A1.43,1.43,0,0,0,210.77,39.27Z" transform="translate(-6.68 -7.73)"/><path class="h" d="M215.17,43.54a1.94,1.94,0,0,1-1.72-1.06,2.22,2.22,0,0,1-.26-1.09v-.18a2.37,2.37,0,0,1,.25-1.1,1.87,1.87,0,0,1,.69-.78,1.7,1.7,0,0,1,1-.28,1.62,1.62,0,0,1,1.24.51,1.93,1.93,0,0,1,.48,1.36v.23h-3.39v.23a2.14,2.14,0,0,0,.23,1,1.81,1.81,0,0,0,.64.7,1.68,1.68,0,0,0,.89.26,1.79,1.79,0,0,0,.77-.15,1.49,1.49,0,0,0,.57-.44l.16.11A1.75,1.75,0,0,1,215.17,43.54Zm-.09-4.27a1.49,1.49,0,0,0-1.12.47,2,2,0,0,0-.53,1.19h3.15v0a1.81,1.81,0,0,0-.2-.82,1.49,1.49,0,0,0-.53-.58A1.46,1.46,0,0,0,215.08,39.27Z" transform="translate(-6.68 -7.73)"/><path class="h" d="M217.65,41.25a2.6,2.6,0,0,1,.45-1.62,1.49,1.49,0,0,1,1.25-.58,1.77,1.77,0,0,1,.9.22,1.71,1.71,0,0,1,.63.65V37.31h.23v6.15h-.23v-.7a1.45,1.45,0,0,1-.63.57,1.91,1.91,0,0,1-.91.21,1.47,1.47,0,0,1-1.24-.6,2.65,2.65,0,0,1-.45-1.63Zm.23.08a2.5,2.5,0,0,0,.38,1.46,1.25,1.25,0,0,0,1.08.53,1.79,1.79,0,0,0,.95-.24,1.36,1.36,0,0,0,.59-.7v-2a1.49,1.49,0,0,0-1.53-1.09,1.24,1.24,0,0,0-1.08.52A2.55,2.55,0,0,0,217.88,41.33Z" transform="translate(-6.68 -7.73)"/><path class="h" d="M225.33,42.4q0-.8-1.41-1.08a2.76,2.76,0,0,1-1.17-.44.9.9,0,0,1-.33-.74.92.92,0,0,1,.42-.78,1.76,1.76,0,0,1,1.09-.31,1.94,1.94,0,0,1,1.18.33,1.1,1.1,0,0,1,.44.9h-.23a.89.89,0,0,0-.38-.72,1.61,1.61,0,0,0-1-.29,1.64,1.64,0,0,0-.94.24.78.78,0,0,0-.22,1.08,1.16,1.16,0,0,0,.43.3,4.16,4.16,0,0,0,.85.26,3.86,3.86,0,0,1,.89.29,1.18,1.18,0,0,1,.47.4,1,1,0,0,1,.14.56.94.94,0,0,1-.44.82,1.9,1.9,0,0,1-1.14.32,2.08,2.08,0,0,1-1.23-.33,1,1,0,0,1-.47-.85h.23a.88.88,0,0,0,.42.71,2,2,0,0,0,1.05.25,1.65,1.65,0,0,0,1-.27A.8.8,0,0,0,225.33,42.4Z" transform="translate(-6.68 -7.73)"/><path class="h" d="M226.69,43.26a.26.26,0,0,1,.07-.16.25.25,0,0,1,.16-.06.25.25,0,0,1,.17.06.22.22,0,0,1,0,.32.25.25,0,0,1-.17.06.25.25,0,0,1-.16-.06A.26.26,0,0,1,226.69,43.26Z" transform="translate(-6.68 -7.73)"/><path class="h" d="M228.91,52.51a.18.18,0,0,1,.07-.15.19.19,0,0,1,.16-.07.2.2,0,0,1,.16.07.18.18,0,0,1,.07.15.19.19,0,0,1-.07.16.23.23,0,0,1-.16.06.21.21,0,0,1-.16-.06A.19.19,0,0,1,228.91,52.51Z" transform="translate(-6.68 -7.73)"/><path class="h" d="M171.6,52.65h-.22V46.83h.22Z" transform="translate(-6.68 -7.73)"/><path class="h" d="M176.56,52.65h-.23v-2.9a1.37,1.37,0,0,0-.3-1,1.22,1.22,0,0,0-.93-.32,1.45,1.45,0,0,0-1.22.63,2,2,0,0,0-.37.83v2.73h-.23V48.33h.23v1a1.82,1.82,0,0,1,.65-.81,1.61,1.61,0,0,1,1-.29,1.65,1.65,0,0,1,.93.24,1.15,1.15,0,0,1,.47.78,1.61,1.61,0,0,1,.65-.74,1.89,1.89,0,0,1,1-.28,1.42,1.42,0,0,1,1.09.39,1.83,1.83,0,0,1,.36,1.19v2.82h-.23v-2.8a1.55,1.55,0,0,0-.3-1.05,1.18,1.18,0,0,0-.94-.34,1.6,1.6,0,0,0-1.3.63,1.22,1.22,0,0,0-.3.69Z" transform="translate(-6.68 -7.73)"/><path class="h" d="M184.46,50.53a2.63,2.63,0,0,1-.46,1.61,1.46,1.46,0,0,1-1.24.59,2,2,0,0,1-.92-.2,1.5,1.5,0,0,1-.62-.55v2.34H181v-6h.23v.77a1.53,1.53,0,0,1,.63-.63,1.77,1.77,0,0,1,.9-.22,1.49,1.49,0,0,1,1.25.58,2.61,2.61,0,0,1,.46,1.63Zm-.24-.08a2.41,2.41,0,0,0-.38-1.46,1.28,1.28,0,0,0-1.09-.53,1.59,1.59,0,0,0-1,.29,1.44,1.44,0,0,0-.57.81v2a1.3,1.3,0,0,0,.57.69,1.77,1.77,0,0,0,1,.25,1.27,1.27,0,0,0,1.08-.53A2.58,2.58,0,0,0,184.22,50.45Z" transform="translate(-6.68 -7.73)"/><path class="h" d="M187.68,48.49l-.3,0a1.36,1.36,0,0,0-1,.36,1.74,1.74,0,0,0-.51,1v2.83h-.23V48.33h.23v.9a1.47,1.47,0,0,1,1.47-1,1,1,0,0,1,.32,0Z" transform="translate(-6.68 -7.73)"/><path class="h" d="M188.12,50.41a2.4,2.4,0,0,1,.25-1.12,1.86,1.86,0,0,1,.7-.77,2,2,0,0,1,1-.27,1.94,1.94,0,0,1,1,.27,1.78,1.78,0,0,1,.7.76,2.32,2.32,0,0,1,.26,1.1v.2a2.39,2.39,0,0,1-.25,1.11,1.86,1.86,0,0,1-.7.77,2.08,2.08,0,0,1-2,0,1.78,1.78,0,0,1-.7-.76,2.35,2.35,0,0,1-.26-1.1Zm.23.17a2.11,2.11,0,0,0,.22,1,1.79,1.79,0,0,0,.62.71,1.76,1.76,0,0,0,.92.25,1.62,1.62,0,0,0,1.26-.56,2.11,2.11,0,0,0,.48-1.43v-.12a2.18,2.18,0,0,0-.22-1,1.71,1.71,0,0,0-.63-.7,1.63,1.63,0,0,0-.9-.26,1.6,1.6,0,0,0-1.27.57,2.1,2.1,0,0,0-.48,1.42Z" transform="translate(-6.68 -7.73)"/><path class="h" d="M194.44,52.31l1.63-4h.24l-1.76,4.32h-.22l-1.76-4.32h.24Z" transform="translate(-6.68 -7.73)"/><path class="h" d="M197.14,47a.23.23,0,0,1,.06-.16.22.22,0,0,1,.17-.07.21.21,0,0,1,.16.07.2.2,0,0,1,.07.16.18.18,0,0,1-.07.15.21.21,0,0,1-.16.07.22.22,0,0,1-.17-.07A.2.2,0,0,1,197.14,47Zm.34,5.67h-.23V48.33h.23Z" transform="translate(-6.68 -7.73)"/><path class="h" d="M199.19,49.34a1.77,1.77,0,0,1,.65-.8,1.69,1.69,0,0,1,.95-.29,1.37,1.37,0,0,1,1.08.39,1.71,1.71,0,0,1,.36,1.19v2.82H202V49.83a1.54,1.54,0,0,0-.29-1,1.2,1.2,0,0,0-.93-.34,1.45,1.45,0,0,0-1,.4,2,2,0,0,0-.58,1v2.76H199V48.33h.23Z" transform="translate(-6.68 -7.73)"/><path class="h" d="M203.43,50.45a2.6,2.6,0,0,1,.46-1.62,1.49,1.49,0,0,1,1.25-.58,1.77,1.77,0,0,1,.9.22,1.71,1.71,0,0,1,.63.65v-.79h.23v4.25a1.82,1.82,0,0,1-.46,1.33,1.62,1.62,0,0,1-1.25.49,1.91,1.91,0,0,1-.83-.19,1.88,1.88,0,0,1-.65-.54l.16-.15a1.77,1.77,0,0,0,.58.49,1.54,1.54,0,0,0,.73.17,1.43,1.43,0,0,0,1.09-.4,1.65,1.65,0,0,0,.4-1.15V52a1.65,1.65,0,0,1-.63.57,2.06,2.06,0,0,1-.91.19,1.46,1.46,0,0,1-1.24-.59,2.66,2.66,0,0,1-.46-1.64Zm.24.08a2.41,2.41,0,0,0,.38,1.46,1.26,1.26,0,0,0,1.08.53,1.78,1.78,0,0,0,1-.26,1.34,1.34,0,0,0,.57-.71v-2a1.49,1.49,0,0,0-1.53-1.13,1.28,1.28,0,0,0-1.09.53A2.56,2.56,0,0,0,203.67,50.53Z" transform="translate(-6.68 -7.73)"/><path class="h" d="M210.74,52.44h3.12v.21h-3.35V46.83h.23Z" transform="translate(-6.68 -7.73)"/><path class="h" d="M214.74,47a.24.24,0,0,1,.07-.16.2.2,0,0,1,.16-.07.22.22,0,0,1,.17.07.2.2,0,0,1,.07.16.18.18,0,0,1-.07.15.22.22,0,0,1-.17.07.2.2,0,0,1-.16-.07A.21.21,0,0,1,214.74,47Zm.35,5.67h-.23V48.33h.23Z" transform="translate(-6.68 -7.73)"/><path class="h" d="M217.9,52.31l1.62-4h.25L218,52.65h-.22L216,48.33h.24Z" transform="translate(-6.68 -7.73)"/><path class="h" d="M222.28,52.73a1.84,1.84,0,0,1-1-.28,1.91,1.91,0,0,1-.72-.77,2.34,2.34,0,0,1-.26-1.09v-.18a2.5,2.5,0,0,1,.25-1.1,1.88,1.88,0,0,1,.69-.78,1.76,1.76,0,0,1,1-.28,1.64,1.64,0,0,1,1.24.51,1.93,1.93,0,0,1,.48,1.36v.23h-3.39v.23a2.17,2.17,0,0,0,.23,1,1.73,1.73,0,0,0,.64.7,1.64,1.64,0,0,0,.88.26,1.81,1.81,0,0,0,.78-.15,1.57,1.57,0,0,0,.57-.44l.15.1A1.71,1.71,0,0,1,222.28,52.73Zm-.08-4.27a1.53,1.53,0,0,0-1.12.47,2,2,0,0,0-.54,1.2h3.15v-.05a1.77,1.77,0,0,0-.19-.82,1.47,1.47,0,0,0-.54-.59A1.4,1.4,0,0,0,222.2,48.46Z" transform="translate(-6.68 -7.73)"/><path class="h" d="M227.76,51.59c0-.52-.47-.88-1.4-1.07a2.76,2.76,0,0,1-1.18-.44.91.91,0,0,1-.33-.74.92.92,0,0,1,.42-.78,1.78,1.78,0,0,1,1.09-.31,1.94,1.94,0,0,1,1.18.33,1.07,1.07,0,0,1,.44.9h-.23a.87.87,0,0,0-.38-.72,1.6,1.6,0,0,0-1-.3,1.66,1.66,0,0,0-.94.25.74.74,0,0,0-.34.62.7.7,0,0,0,.13.46,1,1,0,0,0,.42.3,4.91,4.91,0,0,0,.85.26,3.86,3.86,0,0,1,.89.29,1.18,1.18,0,0,1,.47.4,1,1,0,0,1,.15.56,1,1,0,0,1-.44.82,2,2,0,0,1-1.15.31,2.08,2.08,0,0,1-1.23-.33,1,1,0,0,1-.47-.85h.23a.87.87,0,0,0,.42.71,1.9,1.9,0,0,0,1.05.26,1.65,1.65,0,0,0,1-.27A.8.8,0,0,0,227.76,51.59Z" transform="translate(-6.68 -7.73)"/></svg>