<svg xmlns="http://www.w3.org/2000/svg" viewBox="0 0 157.01 65.11"><defs><style>.a{fill:#6660a9;}.b{fill:#18bdce;}.c{fill:#43b54c;}.d{fill:#422d72;}.e{fill:#c63893;}.f{fill:#f9ba1b;}.g{fill:#747777;}.h{fill:#231f20;}</style></defs><rect class="a" x="19.47" y="37.17" width="15.76" height="15.76" transform="translate(-28.9 26.03) rotate(-45)"/><rect class="b" x="30.61" y="48.31" width="15.76" height="15.76" transform="translate(-33.52 37.18) rotate(-45)"/><rect class="c" x="41.76" y="37.17" width="15.76" height="15.76" transform="translate(-22.38 41.8) rotate(-45)"/><rect class="d" x="30.61" y="26.02" width="15.76" height="15.76" transform="translate(-17.76 30.65) rotate(-45)"/><rect class="e" x="8.32" y="26.02" width="15.76" height="15.76" transform="translate(-24.29 14.89) rotate(-45)"/><rect class="e" x="19.47" y="14.88" width="15.76" height="15.76" transform="translate(-13.14 19.51) rotate(-45)"/><rect class="f" x="52.9" y="26.02" width="15.76" height="15.76" transform="translate(-11.23 46.41) rotate(-45)"/><rect class="f" x="41.76" y="14.88" width="15.76" height="15.76" transform="translate(-6.61 35.27) rotate(-45)"/><path class="g" d="M81.55,23.12V7.37h5.66a8,8,0,0,1,4.62,1.11,3.7,3.7,0,0,1,1.59,3.24,3.68,3.68,0,0,1-.57,2.08,3.26,3.26,0,0,1-1.65,1.28,3.34,3.34,0,0,1,1.89,1.21,3.51,3.51,0,0,1,.66,2.16,4.18,4.18,0,0,1-1.46,3.48,7,7,0,0,1-4.35,1.19Zm3.8-9.19h2a2.79,2.79,0,0,0,1.77-.45,1.65,1.65,0,0,0,.53-1.32,1.69,1.69,0,0,0-.57-1.43,3,3,0,0,0-1.85-.44H85.35Zm0,2.49V20.2h2.48a2.37,2.37,0,0,0,1.58-.47A1.66,1.66,0,0,0,90,18.4a1.75,1.75,0,0,0-2-2Z" transform="translate(-5.06 -6.5)"/><path class="g" d="M102.64,21.85a3.74,3.74,0,0,1-3.12,1.48,3.68,3.68,0,0,1-2.92-1.12,4.69,4.69,0,0,1-1-3.21V11.41h3.65V19a1.31,1.31,0,0,0,1.46,1.5,1.89,1.89,0,0,0,1.78-.9V11.41h3.67V23.12h-3.42Z" transform="translate(-5.06 -6.5)"/><path class="g" d="M108.14,8.39a1.62,1.62,0,0,1,.56-1.27,2.16,2.16,0,0,1,1.46-.5,2.12,2.12,0,0,1,1.46.5,1.6,1.6,0,0,1,.57,1.27,1.62,1.62,0,0,1-.57,1.28,2.12,2.12,0,0,1-1.46.5,2.16,2.16,0,0,1-1.46-.5A1.64,1.64,0,0,1,108.14,8.39ZM112,23.12h-3.65V11.41H112Z" transform="translate(-5.06 -6.5)"/><path class="g" d="M118.1,23.12h-3.65V6.5h3.65Z" transform="translate(-5.06 -6.5)"/><path class="g" d="M119.89,17.18a7.12,7.12,0,0,1,1.2-4.38,3.94,3.94,0,0,1,3.35-1.6,3.35,3.35,0,0,1,2.64,1.23V6.5h3.66V23.12h-3.28l-.18-1.26a3.45,3.45,0,0,1-2.86,1.47,4,4,0,0,1-3.31-1.6A7.38,7.38,0,0,1,119.89,17.18Zm3.65.23c0,2.07.6,3.11,1.81,3.11a1.78,1.78,0,0,0,1.73-1V15.05a1.73,1.73,0,0,0-1.7-1c-1.13,0-1.74.91-1.83,2.72Z" transform="translate(-5.06 -6.5)"/><path class="g" d="M132.79,8.39a1.59,1.59,0,0,1,.56-1.27,2.38,2.38,0,0,1,2.92,0,1.62,1.62,0,0,1,.56,1.27,1.64,1.64,0,0,1-.56,1.28,2.38,2.38,0,0,1-2.92,0A1.61,1.61,0,0,1,132.79,8.39Zm3.87,14.73H133V11.41h3.66Z" transform="translate(-5.06 -6.5)"/><path class="g" d="M142.25,11.41l.12,1.38a4,4,0,0,1,3.34-1.59,3.36,3.36,0,0,1,2.74,1.09,5.2,5.2,0,0,1,.93,3.29v7.54h-3.66V15.73a1.94,1.94,0,0,0-.35-1.3,1.65,1.65,0,0,0-1.3-.42,1.75,1.75,0,0,0-1.59.84v8.27h-3.65V11.41Z" transform="translate(-5.06 -6.5)"/><path class="g" d="M151,17.18a7.92,7.92,0,0,1,.59-3.14,4.71,4.71,0,0,1,1.67-2.1,4.4,4.4,0,0,1,2.55-.74,3.51,3.51,0,0,1,2.85,1.23l.13-1h3.31V22.67a4.92,4.92,0,0,1-.72,2.69,4.64,4.64,0,0,1-2.08,1.76,7.78,7.78,0,0,1-3.16.61,6.65,6.65,0,0,1-2.49-.49A4.47,4.47,0,0,1,151.77,26l1.53-2.14A3.34,3.34,0,0,0,156,25a2.17,2.17,0,0,0,2.42-2.49v-.36a3.4,3.4,0,0,1-2.65,1.15,4.22,4.22,0,0,1-3.46-1.64A6.77,6.77,0,0,1,151,17.31Zm3.66.23a4.17,4.17,0,0,0,.54,2.27,1.71,1.71,0,0,0,1.51.84,1.92,1.92,0,0,0,1.72-.79V14.81a1.89,1.89,0,0,0-1.69-.8,1.73,1.73,0,0,0-1.53.87A4.73,4.73,0,0,0,154.63,17.41Z" transform="translate(-5.06 -6.5)"/><path class="g" d="M81.74,43.15V27.4H87.4A8,8,0,0,1,92,28.51a4.1,4.1,0,0,1,1,5.33,3.24,3.24,0,0,1-1.65,1.27,3.31,3.31,0,0,1,1.89,1.22,3.51,3.51,0,0,1,.66,2.16A4.2,4.2,0,0,1,92.48,42a7,7,0,0,1-4.35,1.18ZM85.54,34h2a2.78,2.78,0,0,0,1.77-.46,1.62,1.62,0,0,0,.53-1.31,1.7,1.7,0,0,0-.57-1.44,3.11,3.11,0,0,0-1.85-.44H85.54Zm0,2.49v3.77H88a2.37,2.37,0,0,0,1.58-.47,1.64,1.64,0,0,0,.56-1.33,1.74,1.74,0,0,0-2-2Z" transform="translate(-5.06 -6.5)"/><path class="g" d="M99.71,43.15H96.05V26.53h3.66Z" transform="translate(-5.06 -6.5)"/><path class="g" d="M101.49,37.19a6.82,6.82,0,0,1,.69-3.12,4.84,4.84,0,0,1,1.95-2.1,5.81,5.81,0,0,1,3-.74,5.36,5.36,0,0,1,4.14,1.63,6.24,6.24,0,0,1,1.52,4.43v.13a6.07,6.07,0,0,1-1.52,4.34,6.09,6.09,0,0,1-8.13.11,5.86,5.86,0,0,1-1.64-4.06Zm3.65.23a4.36,4.36,0,0,0,.51,2.38,1.7,1.7,0,0,0,1.5.75c1.3,0,2-1,2-3v-.37q0-3.15-2-3.15c-1.22,0-1.88.91-2,2.72Z" transform="translate(-5.06 -6.5)"/><path class="g" d="M119.34,40.55a1.6,1.6,0,0,0,1.19-.41A1.53,1.53,0,0,0,121,39h3.41A4.06,4.06,0,0,1,123,42.14a5.13,5.13,0,0,1-3.55,1.23,5.21,5.21,0,0,1-4-1.6,6.33,6.33,0,0,1-1.48-4.44v-.15a7.06,7.06,0,0,1,.66-3.13A4.8,4.8,0,0,1,116.48,32a5.58,5.58,0,0,1,2.92-.73A5,5,0,0,1,123,32.5a4.45,4.45,0,0,1,1.34,3.43H121a2,2,0,0,0-.45-1.4,1.5,1.5,0,0,0-1.19-.49c-.94,0-1.5.6-1.65,1.81a12.69,12.69,0,0,0-.08,1.58,5,5,0,0,0,.42,2.44A1.45,1.45,0,0,0,119.34,40.55Z" transform="translate(-5.06 -6.5)"/><path class="g" d="M130.61,38.79l-1,1v3.33h-3.65V26.52h3.65v8.83l.37-.49,2.74-3.41h4.37L133,36.26l4.37,6.89h-4.18Z" transform="translate(-5.06 -6.5)"/><path class="g" d="M144.15,39.86a.82.82,0,0,0-.49-.74,7.09,7.09,0,0,0-1.85-.59,8.53,8.53,0,0,1-2.25-.79,3.79,3.79,0,0,1-1.35-1.2,2.84,2.84,0,0,1-.46-1.61,3.23,3.23,0,0,1,1.33-2.66,5.5,5.5,0,0,1,3.48-1,6.06,6.06,0,0,1,3.72,1.05A3.28,3.28,0,0,1,147.69,35H144c0-.94-.49-1.41-1.48-1.41a1.48,1.48,0,0,0-1,.32,1,1,0,0,0-.39.8.93.93,0,0,0,.47.79,4.64,4.64,0,0,0,1.52.49,13.25,13.25,0,0,1,1.84.47c1.76.6,2.64,1.69,2.64,3.26a3.07,3.07,0,0,1-1.43,2.6,6.21,6.21,0,0,1-3.68,1,6.35,6.35,0,0,1-2.68-.54A4.46,4.46,0,0,1,138,41.36a3.35,3.35,0,0,1-.66-2h3.41a1.38,1.38,0,0,0,.54,1.18,2.21,2.21,0,0,0,1.33.38,1.76,1.76,0,0,0,1.12-.31A1,1,0,0,0,144.15,39.86Z" transform="translate(-5.06 -6.5)"/><path class="g" d="M90.55,56.47H83.94v7H81.86V47.68h9.76v1.7H83.94v5.39h6.61Z" transform="translate(-5.06 -6.5)"/><path class="g" d="M93,57.47a6.82,6.82,0,0,1,.68-3.1,5,5,0,0,1,1.88-2.12,5.17,5.17,0,0,1,2.75-.74,5,5,0,0,1,3.87,1.65,6.38,6.38,0,0,1,1.47,4.4v.15a6.9,6.9,0,0,1-.65,3.06,5,5,0,0,1-1.87,2.12,5.21,5.21,0,0,1-2.8.75A4.92,4.92,0,0,1,94.52,62,6.3,6.3,0,0,1,93,57.61Zm2,.24a5,5,0,0,0,.9,3.12,3.07,3.07,0,0,0,4.85,0,5.56,5.56,0,0,0,.89-3.35,5,5,0,0,0-.91-3.12,2.91,2.91,0,0,0-2.43-1.2A2.87,2.87,0,0,0,96,54.33,5.42,5.42,0,0,0,95.05,57.71Z" transform="translate(-5.06 -6.5)"/><path class="g" d="M111.86,53.52a6,6,0,0,0-1-.08,2.63,2.63,0,0,0-2.67,1.68v8.31h-2V51.72h2l0,1.35a3.13,3.13,0,0,1,2.8-1.56,2,2,0,0,1,.88.15Z" transform="translate(-5.06 -6.5)"/><path class="g" d="M123.5,56.1l-1.92,2v5.32H119.5V47.68h2.08v7.79l7-7.79h2.51l-6.2,7,6.68,8.8h-2.48Z" transform="translate(-5.06 -6.5)"/><path class="g" d="M133.09,48.62a1.17,1.17,0,0,1,.3-.82,1.1,1.1,0,0,1,.88-.34,1.13,1.13,0,0,1,.89.34,1.26,1.26,0,0,1,0,1.63,1.2,1.2,0,0,1-.89.32,1.07,1.07,0,0,1-1.18-1.13Zm2.16,14.81h-2V51.72h2Z" transform="translate(-5.06 -6.5)"/><path class="g" d="M138,57.48a6.83,6.83,0,0,1,1.28-4.34,4.35,4.35,0,0,1,6.59-.23v-6.1h2V63.43H146l-.1-1.26a4.08,4.08,0,0,1-3.34,1.47A4,4,0,0,1,139.25,62,7,7,0,0,1,138,57.63Zm2,.23a5.17,5.17,0,0,0,.82,3.11A2.67,2.67,0,0,0,143.06,62a2.91,2.91,0,0,0,2.78-1.71V54.86a2.93,2.93,0,0,0-2.75-1.66,2.67,2.67,0,0,0-2.3,1.14A5.72,5.72,0,0,0,140,57.71Z" transform="translate(-5.06 -6.5)"/><path class="g" d="M157.77,60.32a1.48,1.48,0,0,0-.62-1.26,5.83,5.83,0,0,0-2.13-.77,10.48,10.48,0,0,1-2.41-.78,3.47,3.47,0,0,1-1.32-1.08,2.64,2.64,0,0,1-.43-1.49,3.06,3.06,0,0,1,1.22-2.44,4.77,4.77,0,0,1,3.11-1,4.9,4.9,0,0,1,3.23,1,3.26,3.26,0,0,1,1.24,2.63h-2a1.8,1.8,0,0,0-.7-1.41,2.61,2.61,0,0,0-1.76-.6,2.72,2.72,0,0,0-1.71.48,1.48,1.48,0,0,0-.61,1.24,1.21,1.21,0,0,0,.57,1.09,7,7,0,0,0,2.07.71,10.62,10.62,0,0,1,2.43.8,3.52,3.52,0,0,1,1.38,1.12,2.71,2.71,0,0,1,.45,1.59,3,3,0,0,1-1.26,2.52,5.24,5.24,0,0,1-3.25.94,5.92,5.92,0,0,1-2.49-.49,4.12,4.12,0,0,1-1.7-1.39,3.42,3.42,0,0,1-.61-1.93h2a2,2,0,0,0,.8,1.59,3.14,3.14,0,0,0,2,.59,3.21,3.21,0,0,0,1.82-.46A1.41,1.41,0,0,0,157.77,60.32Z" transform="translate(-5.06 -6.5)"/><path class="h" d="M83.77,68.41H81.7v2h-.15V66.35h2.51v.15H81.7v1.75h2.07Z" transform="translate(-5.06 -6.5)"/><path class="h" d="M86.68,70.4v-.49a1,1,0,0,1-.39.4,1.39,1.39,0,0,1-.65.14.88.88,0,0,1-.73-.29,1.27,1.27,0,0,1-.26-.83V67.39h.15v1.94a1.17,1.17,0,0,0,.22.73.78.78,0,0,0,.62.24,1.16,1.16,0,0,0,.7-.2,1,1,0,0,0,.34-.6V67.39h.15v3Z" transform="translate(-5.06 -6.5)"/><path class="h" d="M87.93,68.09a1.25,1.25,0,0,1,.43-.55,1.07,1.07,0,0,1,.64-.21.88.88,0,0,1,.71.28,1.22,1.22,0,0,1,.24.82v2H89.8v-2a1.07,1.07,0,0,0-.2-.71.74.74,0,0,0-.61-.24,1,1,0,0,0-.68.28,1.4,1.4,0,0,0-.38.71V70.4h-.15v-3h.15Z" transform="translate(-5.06 -6.5)"/><path class="h" d="M90.75,68.86a1.78,1.78,0,0,1,.31-1.12,1,1,0,0,1,.83-.41,1.22,1.22,0,0,1,.6.16,1.15,1.15,0,0,1,.42.45V66.13h.15V70.4h-.15v-.48a1,1,0,0,1-.42.39,1.34,1.34,0,0,1-.61.14,1,1,0,0,1-.82-.41,1.86,1.86,0,0,1-.31-1.14Zm.16.06a1.76,1.76,0,0,0,.25,1,.82.82,0,0,0,.72.37,1.19,1.19,0,0,0,.64-.16,1.07,1.07,0,0,0,.39-.49V68.24a1,1,0,0,0-1-.76.84.84,0,0,0-.72.37A1.86,1.86,0,0,0,90.91,68.92Z" transform="translate(-5.06 -6.5)"/><path class="h" d="M94,66.45a.14.14,0,1,1,0,.11A.15.15,0,0,1,94,66.45Zm.22,4H94v-3h.15Z" transform="translate(-5.06 -6.5)"/><path class="h" d="M95.33,68.09a1.25,1.25,0,0,1,.43-.55,1,1,0,0,1,.64-.21.88.88,0,0,1,.71.28,1.22,1.22,0,0,1,.24.82v2H97.2v-2a1.07,1.07,0,0,0-.2-.71.74.74,0,0,0-.61-.24,1,1,0,0,0-.68.28,1.4,1.4,0,0,0-.38.71V70.4h-.15v-3h.15Z" transform="translate(-5.06 -6.5)"/><path class="h" d="M98.15,68.86a1.84,1.84,0,0,1,.3-1.12,1,1,0,0,1,.84-.41,1.16,1.16,0,0,1,.59.16,1,1,0,0,1,.42.45v-.55h.15v3a1.33,1.33,0,0,1-.3.93,1,1,0,0,1-.83.34,1.32,1.32,0,0,1-.56-.13,1.27,1.27,0,0,1-.42-.38l.1-.1a1.33,1.33,0,0,0,.38.34,1.08,1.08,0,0,0,1.22-.16,1.17,1.17,0,0,0,.26-.8v-.46a1,1,0,0,1-.42.39,1.21,1.21,0,0,1-.6.14,1,1,0,0,1-.83-.41,1.93,1.93,0,0,1-.3-1.14Zm.16.06a1.73,1.73,0,0,0,.25,1,.82.82,0,0,0,.72.37,1.17,1.17,0,0,0,.64-.17,1,1,0,0,0,.38-.5V68.26a1,1,0,0,0-1-.78.84.84,0,0,0-.72.37A1.86,1.86,0,0,0,98.31,68.92Z" transform="translate(-5.06 -6.5)"/><path class="h" d="M105.77,70.4h-.15L103,66.61V70.4h-.15V66.35H103l2.62,3.78V66.35h.15Z" transform="translate(-5.06 -6.5)"/><path class="h" d="M107.88,70.45a1.21,1.21,0,0,1-.67-.19,1.4,1.4,0,0,1-.48-.54,1.73,1.73,0,0,1-.17-.76v-.13a1.76,1.76,0,0,1,.17-.76,1.28,1.28,0,0,1,.46-.54,1.1,1.1,0,0,1,.63-.2,1.07,1.07,0,0,1,.83.36,1.4,1.4,0,0,1,.32,1v.15h-2.26V69a1.38,1.38,0,0,0,.16.67,1.13,1.13,0,0,0,.42.49,1,1,0,0,0,.59.18,1.13,1.13,0,0,0,.51-.1,1,1,0,0,0,.38-.31l.11.08A1.15,1.15,0,0,1,107.88,70.45Zm-.06-3a1,1,0,0,0-.74.33,1.47,1.47,0,0,0-.36.83h2.09v0a1.32,1.32,0,0,0-.12-.57,1,1,0,0,0-.36-.41A.9.9,0,0,0,107.82,67.48Z" transform="translate(-5.06 -6.5)"/><path class="h" d="M110.75,70.45a1.19,1.19,0,0,1-.67-.19,1.4,1.4,0,0,1-.48-.54,1.73,1.73,0,0,1-.17-.76v-.13a1.63,1.63,0,0,1,.17-.76,1.34,1.34,0,0,1,.45-.54,1.15,1.15,0,0,1,.64-.2,1,1,0,0,1,.82.36,1.35,1.35,0,0,1,.32,1v.15h-2.25V69a1.5,1.5,0,0,0,.15.67,1.22,1.22,0,0,0,.43.49,1,1,0,0,0,.59.18,1.13,1.13,0,0,0,.51-.1,1.11,1.11,0,0,0,.38-.31l.1.08A1.12,1.12,0,0,1,110.75,70.45Zm-.06-3a1,1,0,0,0-.74.33,1.34,1.34,0,0,0-.36.83h2.09v0a1.2,1.2,0,0,0-.13-.57.94.94,0,0,0-.35-.41A.9.9,0,0,0,110.69,67.48Z" transform="translate(-5.06 -6.5)"/><path class="h" d="M112.39,68.86a1.78,1.78,0,0,1,.31-1.12,1,1,0,0,1,.83-.41,1.22,1.22,0,0,1,.6.16,1.15,1.15,0,0,1,.42.45V66.13h.15V70.4h-.15v-.48a1.12,1.12,0,0,1-.42.39,1.34,1.34,0,0,1-.61.14,1,1,0,0,1-.82-.41,1.86,1.86,0,0,1-.31-1.14Zm.16.06a1.76,1.76,0,0,0,.25,1,.82.82,0,0,0,.72.37,1.14,1.14,0,0,0,.63-.16,1,1,0,0,0,.4-.49V68.24a1,1,0,0,0-1-.76.83.83,0,0,0-.71.37A1.78,1.78,0,0,0,112.55,68.92Z" transform="translate(-5.06 -6.5)"/><path class="h" d="M117.5,69.66c0-.36-.31-.61-.93-.74a1.94,1.94,0,0,1-.79-.31.67.67,0,0,1-.21-.52.64.64,0,0,1,.28-.54,1.14,1.14,0,0,1,.72-.22,1.19,1.19,0,0,1,.78.24.74.74,0,0,1,.3.62h-.16a.6.6,0,0,0-.25-.5,1,1,0,0,0-.67-.21,1,1,0,0,0-.62.18.5.5,0,0,0-.23.43.53.53,0,0,0,.08.32.81.81,0,0,0,.28.2,2.13,2.13,0,0,0,.57.18,2.48,2.48,0,0,1,.59.21.76.76,0,0,1,.31.27.71.71,0,0,1,.1.39.68.68,0,0,1-.29.57,1.23,1.23,0,0,1-.77.22,1.28,1.28,0,0,1-.81-.23.69.69,0,0,1-.31-.59h.15a.63.63,0,0,0,.28.5,1.26,1.26,0,0,0,.69.17,1.05,1.05,0,0,0,.66-.19A.53.53,0,0,0,117.5,69.66Z" transform="translate(-5.06 -6.5)"/><path class="h" d="M118.41,70.26a.15.15,0,0,1,0-.11.16.16,0,1,1,.22.22.15.15,0,0,1-.26-.11Z" transform="translate(-5.06 -6.5)"/><path class="h" d="M121.4,70.4h-.15V66.35h.15Z" transform="translate(-5.06 -6.5)"/><path class="h" d="M124.69,70.4h-.15v-2a1,1,0,0,0-.2-.67.79.79,0,0,0-.62-.23,1,1,0,0,0-.81.44,1.37,1.37,0,0,0-.25.58v1.9h-.15v-3h.15v.71a1.33,1.33,0,0,1,.44-.57,1.1,1.1,0,0,1,.63-.2,1,1,0,0,1,.61.17.82.82,0,0,1,.32.55,1.09,1.09,0,0,1,.43-.52,1.23,1.23,0,0,1,.68-.2.92.92,0,0,1,.72.28,1.22,1.22,0,0,1,.24.82v2h-.15v-2a1.12,1.12,0,0,0-.2-.73.76.76,0,0,0-.62-.24,1.07,1.07,0,0,0-.87.44.94.94,0,0,0-.2.48Z" transform="translate(-5.06 -6.5)"/><path class="h" d="M129.94,68.92a1.88,1.88,0,0,1-.3,1.12,1,1,0,0,1-.83.41,1.34,1.34,0,0,1-.61-.14,1.1,1.1,0,0,1-.42-.38v1.62h-.14V67.39h.14v.54a1.19,1.19,0,0,1,.42-.44,1.22,1.22,0,0,1,.6-.16,1,1,0,0,1,.84.41,1.87,1.87,0,0,1,.3,1.13Zm-.16-.06a1.73,1.73,0,0,0-.25-1,.84.84,0,0,0-.72-.37,1,1,0,0,0-.64.2,1.1,1.1,0,0,0-.39.56v1.41a.93.93,0,0,0,.39.48,1.17,1.17,0,0,0,.64.17.82.82,0,0,0,.72-.37A1.86,1.86,0,0,0,129.78,68.86Z" transform="translate(-5.06 -6.5)"/><path class="h" d="M132.08,67.5l-.2,0a.92.92,0,0,0-.64.25,1.32,1.32,0,0,0-.34.7v2h-.15v-3h.15V68a1.14,1.14,0,0,1,.37-.49,1,1,0,0,1,.61-.19.48.48,0,0,1,.22,0Z" transform="translate(-5.06 -6.5)"/><path class="h" d="M132.37,68.83a1.77,1.77,0,0,1,.17-.77,1.16,1.16,0,0,1,.47-.53,1.21,1.21,0,0,1,.68-.2,1.25,1.25,0,0,1,.67.19,1.22,1.22,0,0,1,.47.53,1.74,1.74,0,0,1,.17.77V69a1.78,1.78,0,0,1-.16.78,1.27,1.27,0,0,1-.47.53,1.2,1.2,0,0,1-.68.19,1.25,1.25,0,0,1-1.15-.72,1.85,1.85,0,0,1-.17-.76Zm.15.12a1.58,1.58,0,0,0,.15.69,1.19,1.19,0,0,0,.42.49,1.11,1.11,0,0,0,.6.17,1.06,1.06,0,0,0,.84-.38,1.48,1.48,0,0,0,.32-1v-.09a1.57,1.57,0,0,0-.15-.68,1.16,1.16,0,0,0-.41-.49,1.06,1.06,0,0,0-.6-.18,1,1,0,0,0-.84.4,1.47,1.47,0,0,0-.33,1Z" transform="translate(-5.06 -6.5)"/><path class="h" d="M136.57,70.16l1.08-2.77h.16l-1.16,3h-.15l-1.17-3h.16Z" transform="translate(-5.06 -6.5)"/><path class="h" d="M138.37,66.45a.15.15,0,0,1,0-.11.14.14,0,0,1,.11,0,.15.15,0,1,1,0,.3.14.14,0,0,1-.11,0A.15.15,0,0,1,138.37,66.45Zm.22,4h-.15v-3h.15Z" transform="translate(-5.06 -6.5)"/><path class="h" d="M139.73,68.09a1.25,1.25,0,0,1,.43-.55,1,1,0,0,1,.64-.21.88.88,0,0,1,.71.28,1.22,1.22,0,0,1,.24.82v2h-.15v-2a1.07,1.07,0,0,0-.2-.71.74.74,0,0,0-.61-.24,1,1,0,0,0-.68.28,1.4,1.4,0,0,0-.38.71V70.4h-.15v-3h.15Z" transform="translate(-5.06 -6.5)"/><path class="h" d="M142.55,68.86a1.84,1.84,0,0,1,.3-1.12,1,1,0,0,1,.83-.41,1.17,1.17,0,0,1,.6.16,1,1,0,0,1,.42.45v-.55h.15v3a1.33,1.33,0,0,1-.3.93,1,1,0,0,1-.83.34,1.32,1.32,0,0,1-.56-.13,1.4,1.4,0,0,1-.43-.38l.11-.1a1.33,1.33,0,0,0,.38.34,1,1,0,0,0,.49.12,1,1,0,0,0,.72-.28,1.12,1.12,0,0,0,.27-.8v-.46a1,1,0,0,1-.42.39,1.21,1.21,0,0,1-.6.14,1,1,0,0,1-.83-.41,1.93,1.93,0,0,1-.3-1.14Zm.15.06a1.73,1.73,0,0,0,.26,1,.82.82,0,0,0,.72.37,1.17,1.17,0,0,0,.64-.17,1,1,0,0,0,.38-.5V68.26a1,1,0,0,0-1-.78.84.84,0,0,0-.72.37A1.86,1.86,0,0,0,142.7,68.92Z" transform="translate(-5.06 -6.5)"/><path class="h" d="M147.4,70.25h2.08v.15h-2.23V66.35h.15Z" transform="translate(-5.06 -6.5)"/><path class="h" d="M150.07,66.45a.16.16,0,0,1,.26-.11.15.15,0,0,1,0,.22.15.15,0,0,1-.26-.11Zm.23,4h-.16v-3h.16Z" transform="translate(-5.06 -6.5)"/><path class="h" d="M152.16,70.16l1.08-2.77h.17l-1.17,3h-.15l-1.17-3h.16Z" transform="translate(-5.06 -6.5)"/><path class="h" d="M155.08,70.45a1.21,1.21,0,0,1-.67-.19,1.4,1.4,0,0,1-.48-.54,1.73,1.73,0,0,1-.17-.76v-.13a1.76,1.76,0,0,1,.17-.76,1.28,1.28,0,0,1,.46-.54,1.1,1.1,0,0,1,.63-.2,1.07,1.07,0,0,1,.83.36,1.39,1.39,0,0,1,.31,1v.15h-2.25V69a1.38,1.38,0,0,0,.16.67,1.13,1.13,0,0,0,.42.49,1,1,0,0,0,.59.18,1.13,1.13,0,0,0,.51-.1,1.11,1.11,0,0,0,.38-.31l.11.08A1.15,1.15,0,0,1,155.08,70.45Zm-.06-3a1,1,0,0,0-.74.33,1.4,1.4,0,0,0-.36.83H156v0a1.32,1.32,0,0,0-.12-.57,1,1,0,0,0-.36-.41A.9.9,0,0,0,155,67.48Z" transform="translate(-5.06 -6.5)"/><path class="h" d="M158.72,69.66c0-.36-.31-.61-.94-.74a2,2,0,0,1-.78-.31.68.68,0,0,1-.22-.52.66.66,0,0,1,.28-.54,1.2,1.2,0,0,1,.73-.22,1.21,1.21,0,0,1,.78.24.73.73,0,0,1,.29.62h-.15a.6.6,0,0,0-.25-.5,1.18,1.18,0,0,0-1.3,0,.55.55,0,0,0-.14.75.81.81,0,0,0,.28.2,2.13,2.13,0,0,0,.57.18,2.48,2.48,0,0,1,.59.21.76.76,0,0,1,.31.27.71.71,0,0,1,.1.39.68.68,0,0,1-.29.57,1.23,1.23,0,0,1-.77.22,1.26,1.26,0,0,1-.81-.23.69.69,0,0,1-.31-.59h.15a.61.61,0,0,0,.28.5,1.26,1.26,0,0,0,.69.17,1.05,1.05,0,0,0,.66-.19A.55.55,0,0,0,158.72,69.66Z" transform="translate(-5.06 -6.5)"/></svg>